<svg aria-hidden="true" style="position: absolute; width: 0; height: 0; overflow: hidden;" version="1.1" xmlns="http://www.w3.org/2000/svg" xmlns:xlink="http://www.w3.org/1999/xlink">
<defs>


<symbol id="icon-linkedin2" viewBox="0 0 32 32">
<path d="M12 12h5.535v2.837h0.079c0.77-1.381 2.655-2.837 5.464-2.837 5.842 0 6.922 3.637 6.922 8.367v9.633h-5.769v-8.54c0-2.037-0.042-4.657-3.001-4.657-3.005 0-3.463 2.218-3.463 4.509v8.688h-5.767v-18z"></path>
<path d="M2 12h6v18h-6v-18z"></path>
<path d="M8 7c0 1.657-1.343 3-3 3s-3-1.343-3-3c0-1.657 1.343-3 3-3s3 1.343 3 3z"></path>
</symbol>

<symbol id="icon-Telegram_white" viewBox="0 0 32 32">
<path fill="none" stroke="#4e6d7d" style="stroke: var(--color2, #4e6d7d)" stroke-linejoin="miter" stroke-linecap="butt" stroke-miterlimit="4" stroke-width="1.0667" d="M13.339 19.255l-0.272 4.078c0.4 0 0.577-0.183 0.8-0.4l1.922-1.869 3.998 2.954c0.736 0.406 1.267 0.196 1.45-0.683l2.625-12.368c0.269-1.077-0.411-1.566-1.115-1.246l-15.412 5.943c-1.052 0.422-1.046 1.009-0.192 1.27l3.955 1.234 9.156-5.777c0.432-0.262 0.829-0.121 0.503 0.168l-7.419 6.696z"></path>
</symbol>
<symbol id="icon-Twitter_white" viewBox="0 0 32 32">
<path fill="none" stroke="#4e6d7d" style="stroke: var(--color2, #4e6d7d)" stroke-linejoin="miter" stroke-linecap="butt" stroke-miterlimit="4" stroke-width="1.0667" d="M15.521 13.005l0.034 0.554-0.56-0.068c-2.037-0.26-3.816-1.141-5.327-2.621l-0.739-0.734-0.19 0.542c-0.403 1.209-0.146 2.486 0.694 3.344 0.448 0.475 0.347 0.542-0.425 0.26-0.269-0.090-0.504-0.158-0.526-0.124-0.078 0.079 0.19 1.107 0.403 1.514 0.291 0.565 0.884 1.119 1.533 1.446l0.548 0.26-0.649 0.011c-0.627 0-0.649 0.011-0.582 0.249 0.224 0.734 1.108 1.514 2.093 1.853l0.694 0.237-0.604 0.362c-0.895 0.52-1.947 0.814-2.999 0.836-0.504 0.011-0.918 0.056-0.918 0.090 0 0.113 1.365 0.746 2.16 0.994 2.384 0.734 5.215 0.418 7.342-0.836 1.511-0.893 3.022-2.666 3.727-4.384 0.381-0.915 0.761-2.587 0.761-3.39 0-0.52 0.034-0.588 0.66-1.209 0.369-0.362 0.716-0.757 0.783-0.87 0.112-0.215 0.101-0.215-0.47-0.023-0.951 0.339-1.086 0.294-0.616-0.215 0.347-0.362 0.761-1.017 0.761-1.209 0-0.034-0.168 0.023-0.358 0.124-0.201 0.113-0.649 0.282-0.985 0.384l-0.604 0.192-0.548-0.373c-0.302-0.203-0.727-0.429-0.951-0.497-0.571-0.158-1.444-0.136-1.959 0.045-1.399 0.508-2.283 1.819-2.182 3.254z"></path>
</symbol>

<symbol id="icon-telegram" viewBox="0 0 32 32">
<path  d="M31.88 5.053l-4.813 22.733c-0.333 1.613-1.307 2-2.667 1.253l-7.333-5.427-3.547 3.427c-0.4 0.4-0.733 0.747-1.467 0.747-0.96 0-0.8-0.36-1.12-1.267l-2.533-8.253-7.267-2.267c-1.573-0.467-1.587-1.547 0.347-2.333l28.347-10.933c1.293-0.573 2.533 0.32 2.053 2.32z"></path>
</symbol>


<symbol id="icon-instagram" viewBox="0 0 32 32">
<path d="M16 2.881c4.275 0 4.781 0.019 6.462 0.094 1.563 0.069 2.406 0.331 2.969 0.55 0.744 0.288 1.281 0.638 1.837 1.194 0.563 0.563 0.906 1.094 1.2 1.838 0.219 0.563 0.481 1.412 0.55 2.969 0.075 1.688 0.094 2.194 0.094 6.463s-0.019 4.781-0.094 6.463c-0.069 1.563-0.331 2.406-0.55 2.969-0.288 0.744-0.637 1.281-1.194 1.837-0.563 0.563-1.094 0.906-1.837 1.2-0.563 0.219-1.413 0.481-2.969 0.55-1.688 0.075-2.194 0.094-6.463 0.094s-4.781-0.019-6.463-0.094c-1.563-0.069-2.406-0.331-2.969-0.55-0.744-0.288-1.281-0.637-1.838-1.194-0.563-0.563-0.906-1.094-1.2-1.837-0.219-0.563-0.481-1.413-0.55-2.969-0.075-1.688-0.094-2.194-0.094-6.463s0.019-4.781 0.094-6.463c0.069-1.563 0.331-2.406 0.55-2.969 0.288-0.744 0.638-1.281 1.194-1.838 0.563-0.563 1.094-0.906 1.838-1.2 0.563-0.219 1.412-0.481 2.969-0.55 1.681-0.075 2.188-0.094 6.463-0.094zM16 0c-4.344 0-4.887 0.019-6.594 0.094-1.7 0.075-2.869 0.35-3.881 0.744-1.056 0.412-1.95 0.956-2.837 1.85-0.894 0.888-1.438 1.781-1.85 2.831-0.394 1.019-0.669 2.181-0.744 3.881-0.075 1.713-0.094 2.256-0.094 6.6s0.019 4.887 0.094 6.594c0.075 1.7 0.35 2.869 0.744 3.881 0.413 1.056 0.956 1.95 1.85 2.837 0.887 0.887 1.781 1.438 2.831 1.844 1.019 0.394 2.181 0.669 3.881 0.744 1.706 0.075 2.25 0.094 6.594 0.094s4.888-0.019 6.594-0.094c1.7-0.075 2.869-0.35 3.881-0.744 1.050-0.406 1.944-0.956 2.831-1.844s1.438-1.781 1.844-2.831c0.394-1.019 0.669-2.181 0.744-3.881 0.075-1.706 0.094-2.25 0.094-6.594s-0.019-4.887-0.094-6.594c-0.075-1.7-0.35-2.869-0.744-3.881-0.394-1.063-0.938-1.956-1.831-2.844-0.887-0.887-1.781-1.438-2.831-1.844-1.019-0.394-2.181-0.669-3.881-0.744-1.712-0.081-2.256-0.1-6.6-0.1v0z"></path>
<path d="M16 7.781c-4.537 0-8.219 3.681-8.219 8.219s3.681 8.219 8.219 8.219 8.219-3.681 8.219-8.219c0-4.537-3.681-8.219-8.219-8.219zM16 21.331c-2.944 0-5.331-2.387-5.331-5.331s2.387-5.331 5.331-5.331c2.944 0 5.331 2.387 5.331 5.331s-2.387 5.331-5.331 5.331z"></path>
<path d="M26.462 7.456c0 1.060-0.859 1.919-1.919 1.919s-1.919-0.859-1.919-1.919c0-1.060 0.859-1.919 1.919-1.919s1.919 0.859 1.919 1.919z"></path>
</symbol>
</defs>
</svg>
